#format: frame checksums
#version: 2
#hash: MD5
#tb 0: 1001/30000
#media_type 0: video
#codec_id 0: rawvideo
#dimensions 0: 352x288
#sar 0: 1/1
#stream#, dts,        pts, duration,     size, hash
0,          0,          0,        1,   152064, a2e5c820fd9733e18f9349fb658ca281
0,          1,          1,        1,   152064, 0d487a146393a0b8b84b4be1b371b507
0,          2,          2,        1,   152064, 68372e191eba620a431cfff226026ac3
0,          3,          3,        1,   152064, de7fd274460e36b983fe93acc208d72f
0,          4,          4,        1,   152064, afbd36c61bab65b98ff9acf08e215721
0,          5,          5,        1,   152064, e1e9fc2ab4e7a187a8d8d84aae48d6b9
0,          6,          6,        1,   152064, 11d95de6a9cc5e00511e99534779faac
0,          7,          7,        1,   152064, cd2f5539fdfc2d8eefe6b6da28c13398
0,          8,          8,        1,   152064, a8b3aeed41da7aeb8d5b962ee4a4af93
0,          9,          9,        1,   152064, 4283670bd1c1c506ef18d3dafca22035
